<svg data-noselect="" viewBox="0 0 800 600" width="800" height="600" preserveAspectRatio="none" version="1.1" xmlns="http://www.w3.org/2000/svg" xmlns:xlink="http://www.w3.org/1999/xlink" class="svg-canvas">  <g id="shape_KAEiguNDND" transform="translate(78,-0.7554681899099478) rotate(0,317.8488105330461,300.6060833825112) scale(1,1)" filter="" style="opacity: 1;"><g><rect fill="rgba(0,0,0,0)" width="655.6976210660922" height="621.2121667650224" x="-10" y="-10"></rect><svg version="1.1" id="图层_1" xmlns="http://www.w3.org/2000/svg" xmlns:xlink="http://www.w3.org/1999/xlink" x="0px" y="0px" viewBox="0 0 403.7 381.8" style="enable-background:new 0 0 403.7 381.8;" xml:space="preserve" width="635.6976210660922" height="601.2121667650224" class="style-removed" preserveAspectRatio="none" data-parent="shape_KAEiguNDND">

<g>
	<circle cx="293.8" cy="176" r="109.9" fill="#028FD4" stroke-width="0"></circle>
    <path d="M24.5,349.1H7.5c-4.1,0-7.5-3.3-7.5-7.5l0,0c0-4.1,3.3-7.5,7.5-7.5h17.1c4.1,0,7.5,3.3,7.5,7.5l0,0
		C32,345.7,28.7,349.1,24.5,349.1z" fill="#0797D6" stroke-width="0"></path>
    <g>
		<path d="M256.7,72.5c-13.4-3.7-27.5-5.7-42.2-5.7c-1.8,0-3.5,0-5.3,0.1h0v0h-115c-5.1,0-9.2,4.1-9.2,9.2v0
			c0,5.1,4.1,9.2,9.2,9.2h46.1c0,0,0,0,0,0c-0.1,0-0.2,0.1-0.2,0.1H184c3.8,0,6.9,3.1,6.9,6.9c0,1.9-0.8,3.6-2,4.9
			c-1.2,1.2-3,2-4.9,2h-65.2c0,0,0,0,0,0H70.1c-3.8,0-6.9,3.1-6.9,6.9c0,3.8,3.1,6.9,6.9,6.9H103c0,0,0,0,0,0
			c-8.2,8.2-15.5,17.4-21.7,27.2h33.4c3.8,0,6.9,3.1,6.9,6.9c0,1.9-0.8,3.6-2,4.9c-1.2,1.2-3,2-4.9,2H73.5v0c0,0,0,0,0,0h-58
			c-3.8,0-6.9,3.1-6.9,6.9s3.1,6.9,6.9,6.9h52C60.7,185.3,57,204.4,57,224.3c0,42.7,17,81.5,44.6,109.8H46c-2.1,0-3.9,0.8-5.3,2.2
			c-1.3,1.4-2.2,3.2-2.2,5.3c0,4.1,3.4,7.5,7.5,7.5h72.4h69.9c4.1,0,7.5,3.4,7.5,7.5c0,2.1-0.8,3.9-2.2,5.3
			c-1.3,1.3-3.2,2.2-5.3,2.2h-46.6c0,0,0,0,0,0h-24.7c-4.7,0-8.6,3.8-8.6,8.6s3.8,8.6,8.6,8.6h83.3c0,0,0,0,0,0
			c4.6,0.4,9.4,0.6,14.1,0.6c76,0,139.5-53.9,154.3-125.5c2.1-10.3,3.3-21.1,3.3-32C372,151.9,323.2,90.9,256.7,72.5z" fill="#012D80" stroke-width="0"></path>
        <path d="M34.6,113h15.7c3.8,0,6.9-3.1,6.9-6.9c0-3.8-3.1-6.9-6.9-6.9H34.6c-3.8,0-6.9,3.1-6.9,6.9
			C27.7,110,30.8,113,34.6,113z" fill="#012D80" stroke-width="0"></path>
	</g>
    <circle cx="225.7" cy="30.6" r="26.6" fill="#001F6B" stroke-width="0"></circle>
    <circle cx="287.9" cy="12.4" r="12.4" fill="#001F6B" stroke-width="0"></circle>
    <circle cx="330.6" cy="46.5" r="16.3" fill="#028FD4" stroke-width="0"></circle>
</g>
</svg></g></g><g id="shape_h41x3JG2Qi" transform="translate(45.80676183002868,-655.8329934856899) rotate(0,350.0420487030175,1015.293) scale(1,1)" filter="" style="opacity: 1;"><g><svg xmlns="http://www.w3.org/2000/svg" version="1.1" xmlns:xlink="http://www.w3.org/1999/xlink" width="1263.824097406035" height="2030.5860000000002" viewBox="0 0 1263.824097406035 2030.5860000000002" data-parent="shape_h41x3JG2Qi"><g data-width="135.57947000000001" transform="translate(282.2523137030175, 0)"><path d="M93.02-138.96L73.29-138.96L72.44-106.26L91.61-106.26L124.30-107.11L127.41-103.16L124.02-62.01L87.66-62.86L71.31-62.86L71.31-59.19L73.57 0L16.91 0L19.73-53.56L16.91-182.37L138.68-182.37L141.78-178.42L138.12-137.27L93.02-138.96Z" transform="translate(0 1099.2930000000001) " fill="#FFFFFF" stroke="#FFFFFF" stroke-width="0.47" data-glyph-w="135.57947000000001" data-glyph-h="338.244" data-glyph-ascender="253.68300000000002" data-glyph-descender="-84.561"></path></g></svg></g></g></svg>
